<?xml version="1.0" encoding="utf-8"?>
<!-- Generator: Adobe Illustrator 16.0.0, SVG Export Plug-In . SVG Version: 6.00 Build 0)  -->
<!DOCTYPE svg PUBLIC "-//W3C//DTD SVG 1.1//EN" "http://www.w3.org/Graphics/SVG/1.1/DTD/svg11.dtd">
<svg version="1.1" id="Layer_1" xmlns="http://www.w3.org/2000/svg" xmlns:xlink="http://www.w3.org/1999/xlink" x="0px" y="0px"
	 width="306px" height="150.5px" viewBox="153 320.859 306 150.5" enable-background="new 153 320.859 306 150.5"
	 xml:space="preserve">
<title>Untitled-2</title>
<path fill="#0B7BA9" d="M331.885,344.582l-16.262,58.484l-16.859,2.984l-26.258-58.933l16.71-7.609l16.561,37.299l9.847-36.702
	L331.885,344.582z"/>
<path fill="#0B7BA9" d="M346.805,399.486c-4.945-2.929-9.096-7.027-12.085-11.936c-2.936-4.752-4.485-10.229-4.476-15.815
	c-0.034-5.589,1.518-11.072,4.476-15.814c2.969-4.886,7.126-8.94,12.085-11.786c4.89-2.852,10.452-4.346,16.113-4.327
	c5.613-0.021,11.129,1.474,15.964,4.327c4.894,2.813,8.999,6.816,11.936,11.637c2.936,4.752,4.486,10.229,4.476,15.815
	c0.026,5.681-1.523,11.259-4.476,16.113c-2.907,4.922-7.014,9.028-11.936,11.936c-9.928,5.97-22.354,5.912-32.227-0.148H346.805z
	 M370.526,385.312c2.447-1.341,4.503-3.295,5.968-5.669c1.499-2.417,2.275-5.212,2.238-8.057c0.014-2.748-0.764-5.44-2.238-7.758
	c-1.451-2.347-3.515-4.255-5.968-5.52c-2.584-1.32-5.453-1.986-8.354-1.94c-2.759-0.048-5.483,0.621-7.907,1.94
	c-2.301,1.247-4.211,3.105-5.521,5.371c-1.326,2.367-1.996,5.046-1.939,7.759c-0.015,2.821,0.705,5.598,2.089,8.056
	c1.29,2.357,3.198,4.317,5.521,5.669c2.45,1.403,5.232,2.125,8.056,2.089C365.278,387.312,368.054,386.644,370.526,385.312
	L370.526,385.312z"/>
<path fill="#0B7BA9" d="M213.424,442.902c-0.006,4.145-0.977,8.23-2.835,11.936c-1.873,3.87-4.572,7.282-7.907,9.996
	c-3.324,2.745-7.267,4.64-11.488,5.52c-2.013,0.411-4.063,0.611-6.117,0.597c-4.816-0.013-9.564-1.136-13.875-3.282
	c-4.407-2.156-8.28-5.265-11.339-9.101c-3.095-3.821-5.242-8.32-6.266-13.129c-0.408-2.014-0.608-4.063-0.597-6.117
	c0.031-9.762,4.405-19.002,11.936-25.214c3.756-3.108,8.21-5.259,12.979-6.267c2.265-0.413,4.562-0.612,6.863-0.597
	c3.741,0.004,7.461,0.557,11.041,1.642c3.253,0.915,6.261,2.546,8.802,4.773l-8.802,13.727c-1.371-1.24-3.002-2.158-4.774-2.686
	c-1.931-0.605-3.944-0.908-5.968-0.896l-3.73,0.447c-3.073,0.699-5.781,2.505-7.608,5.073c-1.947,2.577-2.995,5.722-2.984,8.951
	c-0.041,4.37,1.874,8.53,5.222,11.339c2.354,2.188,5.441,3.412,8.653,3.432l2.388-0.298c1.91-0.417,3.729-1.176,5.371-2.238
	c1.521-0.79,2.692-2.12,3.282-3.729l-14.771-2.835l3.432-14.92l27.452,5.222C212.909,436.992,213.468,439.937,213.424,442.902z"/>
<path fill="#0B7BA9" d="M230.73,466.773c-4.945-2.928-9.096-7.027-12.085-11.936c-2.936-4.752-4.485-10.229-4.476-15.815
	c-0.034-5.589,1.518-11.072,4.476-15.814c2.969-4.886,7.126-8.94,12.085-11.786c4.89-2.852,10.453-4.346,16.113-4.327
	c5.614-0.021,11.129,1.474,15.964,4.327c4.894,2.813,8.999,6.816,11.936,11.637c2.936,4.752,4.486,10.229,4.476,15.815
	c0.026,5.681-1.523,11.259-4.476,16.112c-2.907,4.923-7.014,9.028-11.936,11.936c-9.928,5.97-22.354,5.912-32.227-0.148H230.73z
	 M254.453,452.6c2.447-1.341,4.503-3.295,5.968-5.67c1.499-2.417,2.275-5.212,2.238-8.056c0.014-2.748-0.763-5.44-2.238-7.759
	c-1.452-2.347-3.515-4.255-5.968-5.521c-2.584-1.319-5.454-1.985-8.355-1.939c-2.759-0.048-5.483,0.621-7.907,1.939
	c-2.301,1.247-4.211,3.105-5.521,5.371c-1.326,2.367-1.996,5.046-1.939,7.759c-0.014,2.821,0.706,5.598,2.089,8.057
	c1.29,2.356,3.199,4.316,5.521,5.669c2.451,1.403,5.232,2.124,8.057,2.089c2.858,0.086,5.688-0.583,8.205-1.939H254.453z"/>
<path fill="#0B7BA9" d="M310.849,423.208v47.295l-16.561,0.746v-47.594l-17.307,0.448l-1.194-16.71l52.368-1.193l1.343,16.709
	L310.849,423.208z"/>
<path fill="#0B7BA9" d="M341.881,466.773c-9.494-6.101-15.229-16.615-15.218-27.899c-0.086-5.649,1.357-11.218,4.178-16.113
	c2.749-4.815,6.709-8.827,11.488-11.638c4.782-2.848,10.248-4.343,15.814-4.326c4.146-0.008,8.253,0.803,12.085,2.387
	c3.844,1.577,7.267,4.029,9.996,7.161c2.904,3.395,4.951,7.437,5.968,11.787l-14.472,4.476c-1.01-2.559-2.78-4.746-5.073-6.267
	c-2.563-1.829-5.654-2.771-8.802-2.686c-3.903-0.143-7.706,1.25-10.594,3.88c-2.784,2.586-4.177,6.315-4.177,11.189
	c-0.084,2.953,0.583,5.879,1.939,8.504c1.227,2.315,3.09,4.23,5.371,5.521c2.222,1.283,4.744,1.952,7.311,1.939
	c2.275,0.031,4.525-0.48,6.564-1.492c1.864-0.917,3.535-2.184,4.923-3.729c1.14-1.192,2.005-2.617,2.537-4.178l13.576,4.625
	c-0.728,3.99-2.533,7.705-5.222,10.742c-5.829,6.688-14.253,10.548-23.125,10.593C351.604,471.224,346.375,469.671,341.881,466.773z
	"/>
<path fill="#0B7BA9" d="M276.086,361.143c-4.923-18.053-27.601-44.609-45.206-39.686c-17.605,4.923-23.722,39.089-18.799,57.291
	c2.67,9.872,9.623,18.029,18.948,22.229c7.659,3.724,16.52,4.102,24.468,1.045C271.975,395.854,280.939,378.054,276.086,361.143z"/>
<path fill="#0B7BA9" d="M422.447,447.825l-18.799-2.089v24.767h-16.561v-63.109h16.561v21.782l18.649,1.939v-23.424l16.71-0.298
	l0.447,63.855h-16.859L422.447,447.825z"/>
<path fill="#0B7BA9" d="M442.887,407.394H459l-0.448,63.259h-16.112L442.887,407.394z"/>
<circle fill="#FFDB01" cx="244.198" cy="371.916" r="18.053"/>
<circle fill="#1D1D1B" cx="237.369" cy="373.661" r="2.387"/>
<circle fill="#1D1D1B" cx="250.773" cy="370.237" r="2.387"/>
<circle fill="#FF8601" cx="236.333" cy="379.701" r="1.79"/>
<circle fill="#FF8601" cx="254.822" cy="375.093" r="1.79"/>
<path fill="#1D1D1B" d="M249.529,374.869c-0.298-1.343-8.952,0.746-8.653,2.089c0.83,2.329,3.391,3.543,5.719,2.713
	C248.583,378.962,249.806,376.961,249.529,374.869z"/>
<ellipse transform="matrix(-0.2401 -0.9707 0.9707 -0.2401 -62.2839 707.1298)" fill="#FF8601" cx="245.624" cy="377.942" rx="1.044" ry="2.536"/>
<circle fill="#0B7BA9" cx="450.645" cy="393.518" r="8.355"/>
</svg>
