<?xml version="1.0" encoding="utf-8"?>
<!-- Generator: Adobe Illustrator 16.0.0, SVG Export Plug-In . SVG Version: 6.00 Build 0)  -->
<!DOCTYPE svg PUBLIC "-//W3C//DTD SVG 1.1//EN" "http://www.w3.org/Graphics/SVG/1.1/DTD/svg11.dtd">
<svg version="1.1" id="Layer_1" xmlns="http://www.w3.org/2000/svg" xmlns:xlink="http://www.w3.org/1999/xlink" x="0px" y="0px"
	 width="306.029px" height="231.055px" viewBox="152.956 280.71 306.029 231.055"
	 enable-background="new 152.956 280.71 306.029 231.055" xml:space="preserve">
<title>OVOGOTCHI_version 2</title>
<path fill="#1D1D1B" d="M257.709,372.439h0.167c-0.499,7.768-3.547,15.153-8.672,21.011c-5.163,5.837-12.059,9.868-19.677,11.507
	c-14.897,3.446-27.793,0.556-38.688-8.671c-10.895-9.228-17.121-20.011-18.677-32.351c-1.394-5.851-2.176-11.831-2.334-17.843
	c-0.667-25.569,7.004-41.856,23.012-48.86l4.669-1.501c7.889-1.692,16.11-0.876,23.513,2.335c7.613,2.814,14.107,8.022,18.51,14.841
	c8.894,14.23,14.341,25.625,16.343,34.185c1.782,8.323,2.344,16.862,1.667,25.347H257.709z"/>
<path fill="#1D1D1B" d="M335.252,287.06c3.668,2.557,5.502,7.615,5.502,15.175c0,16.12-7.948,42.301-23.846,78.542
	c-3.213,8.294-10.693,14.176-19.511,15.342l-3.168,0.333c-4.707,0.031-9.367-0.936-13.674-2.835
	c-3.886-1.595-7.199-4.327-9.505-7.837c-6.903-11.224-11.917-23.505-14.842-36.353c-2.875-11.398-4.387-23.098-4.502-34.853
	c0-7.893,0.556-13.618,1.667-17.176c1.364-4.256,4.363-7.795,8.338-9.839c3.076-1.82,6.6-2.744,10.173-2.668
	c6.559,0.333,11.117,3.057,13.674,8.171c2.557,5.114,4.391,14.119,5.503,27.015l2.001,18.01c0.778-6.893,2.057-17.176,3.835-30.85
	s5.281-21.678,10.505-24.013c3.438-1.64,7.197-2.494,11.006-2.501C324.641,280.518,330.699,282.797,335.252,287.06z"/>
<path fill="#1D1D1B" d="M420.131,380.11h0.167c-2.417,7.947-7.401,14.868-14.175,19.677c-6.824,4.806-15,7.316-23.346,7.171
	c-16.342,0-29.072-6.114-38.188-18.344c-7.671-10.339-11.506-23.012-11.506-38.021c-0.054-6.383,0.561-12.755,1.834-19.01
	c5.67-26.681,17.676-41.689,36.02-45.024l5.17-0.5c8.66,0.152,17.057,3.01,24.013,8.171c7.241,4.738,12.743,11.704,15.675,19.845
	c5.781,16.898,8.672,30.016,8.672,39.354c-0.186,9.066-1.703,18.056-4.503,26.681H420.131z M381.777,369.104L381.777,369.104
	c3.001-0.556,4.502-6.226,4.502-17.009c0.049-5.768-0.51-11.525-1.668-17.176c-1.111-5.226-2.334-7.949-3.668-8.171
	s-3.391,2.112-6.17,7.004c-1.923,5.866-2.881,12.004-2.836,18.176C371.938,364.379,375.217,370.104,381.777,369.104z"/>
<path fill="#1D1D1B" d="M215.687,421.633c0.624,1.398,1.126,2.85,1.5,4.336c1.116,3.829,1,7.913-0.333,11.672
	c-2.001,4.781-6.059,7.783-12.173,9.006c-4.897,1.193-10.008-0.891-12.673-5.17l-0.834-3.668c-0.225-1.108-0.97-2.04-2.001-2.502
	l-0.834,0.334c-2.334,15.563-2.39,28.182-0.167,37.854c0.778,3.225,1.001,4.391,0.667,3.502c0.594,1.515,1.721,2.76,3.169,3.502
	c3.779-1.223,5.947-2.946,6.503-5.17c0.556-2.223-0.167-3.279-2.168-3.168c-0.942,0.21-1.924,0.152-2.835-0.167
	c-0.926-0.138-1.699-0.78-2.001-1.667c-0.661-2.477-0.544-5.096,0.333-7.504l2.668-3.336l6.837-2.001l7.338-2.168
	c5.113-1.223,9.227-0.833,12.34,1.167c2.514,2.557,4.199,5.811,4.836,9.339c1.105,5.097,1.274,10.352,0.5,15.509
	c-0.687,5.793-2.621,11.368-5.669,16.342c-2.915,5.014-7.44,8.893-12.84,11.006l-7.004,2.168c-7.581,1.84-15.571,0.893-22.512-2.668
	c-5.002-2.557-9.505-7.06-13.507-13.508c-4.309-7.17-7.407-15.002-9.172-23.179c-2.808-11.397-3.431-23.224-1.834-34.853
	c1.667-11.006,5.336-19.455,11.006-25.348c4.185-3.527,9.163-5.988,14.508-7.17c4.762-1.147,9.721-1.205,14.508-0.167
	c11.896,4.669,19.066,10.617,21.512,17.843L215.687,421.633z"/>
<path fill="#1D1D1B" d="M263.379,478.164L263.379,478.164c-1.238,4.16-3.818,7.796-7.337,10.338
	c-3.542,2.551-7.809,3.896-12.173,3.836c-7.824,0.335-15.288-3.303-19.844-9.672c-4.136-5.834-6.245-12.863-6.003-20.012
	c-0.015-3.36,0.32-6.713,1.001-10.005c3.001-13.896,9.283-21.733,18.844-23.513h2.668c4.484-0.002,8.856,1.396,12.507,4.002
	c3.77,2.473,6.637,6.1,8.171,10.34c3.002,8.893,4.502,15.785,4.502,20.678C265.622,468.914,264.835,473.633,263.379,478.164z
	 M243.368,472.326L243.368,472.326c1.556-0.222,2.334-3.223,2.334-9.004c0.037-3.023-0.243-6.041-0.834-9.006
	c-0.556-2.779-1.223-4.225-2.001-4.335c-0.778-0.111-1.834,1.167-3.168,3.835c-1.005,3.068-1.512,6.277-1.501,9.506
	c0.111,6.559,1.89,9.561,5.336,9.004H243.368z"/>
<path fill="#1D1D1B" d="M314.74,411.794L314.74,411.794c0.257,1.542,0.369,3.106,0.334,4.669c0.179,3.298-0.826,6.551-2.836,9.172
	c-0.777,0.778-4.002,1.723-9.671,2.835c-5.67,1.112-8.616,1.835-8.838,2.167c-0.222,0.334,0.667,8.728,2.668,25.182
	c0.423,3.207,0.646,6.437,0.667,9.672c0.223,6.184-0.739,12.354-2.834,18.176c-2.446,6.004-6.003,8.895-10.672,8.672
	c-7.56-0.223-12.841-2.613-15.842-7.171c-3.002-4.558-4.169-9.894-3.502-16.009c0.667-6.114,0.833-10.339,0.5-12.674l0.667-15.508
	c0.223-4.197,0.725-8.376,1.501-12.507h-2.168c-2.777-0.015-5.534-0.464-8.171-1.334c-3.13-0.768-5.863-2.669-7.671-5.337
	c-1.764-2.803-2.742-6.027-2.835-9.338c0-4.78,2.668-8.505,8.004-11.173c7.708-3.634,16.162-5.404,24.681-5.169
	c5.369,0.038,10.726,0.54,16.009,1.5l12.007,4.503C311.183,404.568,313.851,407.791,314.74,411.794z"/>
<path fill="#1D1D1B" d="M341.755,478.664L341.755,478.664v1.167c0,0.556,0,0.944,0,1.167c-0.556,7.782-3.892,12.896-10.005,15.342
	c-3.444,1.356-7.147,1.926-10.84,1.668c-4.54-0.089-8.883-1.873-12.174-5.003c-6.336-6.337-9.171-14.897-8.504-25.681
	c0.396-5.407,1.289-10.766,2.668-16.009c1.159-4.537,3.325-8.755,6.337-12.341c1.695-1.976,3.88-3.471,6.337-4.335
	c2.76-1.065,5.719-1.521,8.671-1.334c3.468,0.207,6.813,1.36,9.672,3.335c2.886,1.969,5.188,4.676,6.671,7.838
	c0.889,1.988,1.288,4.162,1.167,6.336c-0.078,2.101-0.774,4.131-2.001,5.837c-1.309,2.103-3.535,3.464-6.004,3.669
	c-3.779,0.111-7.004-1.779-9.672-5.67c0-0.111-0.055-0.778-0.166-2.001c0-0.834-0.5-1.334-1.168-1.334l-0.834,1.334l-2,17.343
	c-0.111,1.557-0.168,3.057-0.168,4.502c-0.15,1.3,0.512,2.559,1.668,3.169c1.223,0,3.447-1.224,6.67-3.669
	c3.225-2.445,5.393-3.668,6.504-3.668c0.925,0.043,1.832,0.27,2.668,0.666C340.477,472.438,341.977,474.995,341.755,478.664z"/>
<path fill="#1D1D1B" d="M340.754,413.962h-0.166c2.633-3.573,6.605-5.921,11.006-6.504c2.971-0.68,6.062-0.622,9.005,0.167
	c2.335,1.668,3.946,4.669,4.836,9.005c0.89,4.335,1.334,8.949,1.334,13.841c1.334,2.891,2.835,4.225,4.503,4.002
	c1.033-0.312,1.995-0.822,2.834-1.5c0.668-0.445,1.057-1.946,1.168-4.503c0.111-2.558-1.001-7.448-3.336-14.675
	c-0.333-3.668,1.502-7.17,5.504-10.506c1.915-1.041,4.007-1.721,6.17-2.001c1.639-0.403,3.315-0.628,5.002-0.667
	c3.336,0.334,5.837,2.334,7.504,6.004l1.668,3.334c0.998,2.184,1.727,4.479,2.168,6.838c2.001,9.672,3.391,16.898,4.169,21.678
	c1.706,11.551,1.763,23.286,0.167,34.853c-0.557,4.003-3.279,6.948-8.172,8.839c-2.51,1.201-5.402,1.321-8.004,0.333
	c-3.109-1.538-5.328-4.435-6.003-7.837c-0.427-1.974-0.649-3.985-0.667-6.004c-0.072-2.016-0.295-4.021-0.668-6.004
	c-0.553-1.571-2.229-2.445-3.835-2c-1.815,0.315-3.433,1.334-4.503,2.834c-1.203,1.562-1.632,3.587-1.166,5.504
	c0.555,1.334,1.445,3.724,2.668,7.17c0.68,1.751,0.854,3.658,0.5,5.503c-0.523,1.949-1.777,3.622-3.502,4.669
	c-2.143,1.068-4.457,1.745-6.837,2.002c-3.044,0.604-6.2-0.124-8.671-2.002c-2.635-2.33-4.689-5.242-6.004-8.504
	c-2.342-4.928-4.024-10.142-5.003-15.509c-1.556-8.338-2.835-15.509-3.835-21.512C338.586,427.246,338.643,418.297,340.754,413.962z
	"/>
<path fill="#1D1D1B" d="M437.974,442.477c-0.444,2.891-0.944,6.393-1.501,10.506c-0.556,4.113-0.944,6.782-1.167,8.005
	c-1.833,12.47-4.792,24.749-8.838,36.687c-2.446,6.893-6.337,10.617-11.673,11.173l-3.169-0.333
	c-7.114-1.112-10.562-5.004-10.339-11.674c0.125-10.279,1.016-20.536,2.668-30.684c1.358-8.51,3.479-16.882,6.337-25.014
	l4.003-6.503c4.295-4.6,10.682-6.622,16.842-5.337l4.002,1.168c1.855,1.241,3.027,3.275,3.169,5.503L437.974,442.477z"/>
<path fill="#1D1D1B" d="M458.985,406.457c0,11.559-9.37,20.929-20.929,20.929c-11.558,0-20.928-9.37-20.928-20.929l0,0
	c0-11.506,10.34-25.68,20.845-20.844C453.648,392.617,458.985,394.951,458.985,406.457z"/>
<circle fill="#FFFFFF" cx="217.26" cy="362.461" r="31.517"/>
<circle fill="#1D1D1B" cx="204.997" cy="365.464" r="4.169"/>
<circle fill="#1D1D1B" cx="228.587" cy="359.653" r="4.169"/>
<circle fill="#9D9D9C" cx="203.441" cy="376.058" r="3.002"/>
<circle fill="#9D9D9C" cx="235.634" cy="368.222" r="3.002"/>
<path fill="#1D1D1B" d="M226.358,367.77c-0.667-2.334-15.675,1.334-15.008,3.669c0.667,2.335,5.003,5.503,9.005,4.502
	S227.192,371.271,226.358,367.77z"/>
<ellipse transform="matrix(-0.2404 -0.9707 0.9707 -0.2404 -89.5352 676.0416)" fill="#9D9D9C" cx="219.75" cy="373.054" rx="1.668" ry="4.335"/>
</svg>
