<?xml version="1.0" encoding="utf-8"?>
<!-- Generator: Adobe Illustrator 16.0.0, SVG Export Plug-In . SVG Version: 6.00 Build 0)  -->
<!DOCTYPE svg PUBLIC "-//W3C//DTD SVG 1.1//EN" "http://www.w3.org/Graphics/SVG/1.1/DTD/svg11.dtd">
<svg version="1.1" id="Layer_1" xmlns="http://www.w3.org/2000/svg" xmlns:xlink="http://www.w3.org/1999/xlink" x="0px" y="0px"
	 width="298px" height="261px" viewBox="0 0 298 261" enable-background="new 0 0 298 261" xml:space="preserve">
<g transform="translate(0.000000,261.000000) scale(0.100000,-0.100000)">
	<g>
		<path fill="none" d="M2890,1750c-24.004,30-27.998,47.002-32.998,130c-7.998,112.998-25,180-62.998,250
			c-52.002,96.001-147.002,157.998-269.004,175c-45.996,7.002-55.996,13.999-117.002,80c-173.994,187.998-375,233.999-650,148.999
			c-45.996-13.999-98.994-30-118.994-36.001c-31.006-10-44.004-6.997-110,19.004c-41.006,16.997-104.004,36.997-139.004,45.996
			c-196.001,47.002-332.002,17.002-448.999-100c-31.001-31.997-73.003-85-93.003-117.998c-38.999-67.002-33.999-66.001-147.998-40
			c-141.001,32.002-262.002,2.002-342.998-83.999c-65-68.999-90-143.003-90-261.001l0.996-95l-51.997-35
			c-58.003-40-110-112.002-127.002-172.998c-36.997-137.002,82.002-265,301.001-325c46.001-13.003,63.999-22.002,61.001-32.998
			c-11.001-45-12.002-130-1.001-168.008c16.001-60,95-137.998,181.001-178.994c61.997-29.004,67.998-34.004,82.998-77.998
			c51.001-151.006,130-208.008,255-183.008c58.003,11.006,58.003,11.006,103.003-22.998c160-122.998,355.996-115,557.002,21.006
			L1690,730.996l57.002-17.998c88.994-27.002,260.996-23.994,332.998,5C2160.996,750,2227.998,805.996,2287.998,890l54.004,75
			l110.996,12.002c62.002,5.996,129.004,18.994,149.004,27.002c97.998,41.992,140.996,118.994,140,256.992v78.003l38.994,26.001
			C2965,1486.001,3000,1608.999,2890,1750z"/>
		<path fill="#FFFFFF" d="M2780.996,1365l-38.994-26.001v-78.003c0.996-137.998-42.002-215-140-256.992
			c-20-8.008-87.002-21.006-149.004-27.002L2342.001,965l-54.004-75c-60-84.004-127.001-140-207.998-172.002
			c-72.002-28.994-244.004-32.002-332.998-5L1690,730.996l-60.996-41.992C1427.998,552.998,1232.002,545,1072.002,667.998
			c-45,34.004-45,34.004-103.003,22.998c-125-25-203.999,32.002-255,183.008c-15,43.994-21.001,48.994-82.998,77.998
			C545,992.998,466.001,1070.996,450,1130.996c-11.001,38.008-10,123.008,1.001,168.008c2.998,10.996-15,19.995-61.001,32.998
			c-218.999,60-337.998,187.998-301.001,325C106.001,1717.998,157.998,1790,216.001,1830l51.997,35l-0.996,95
			c0,117.998,25,192.002,90,261.001C437.998,2307.002,558.999,2337.002,700,2305c113.999-26.001,108.999-27.002,147.998,40
			c20,32.998,62.002,86.001,93.003,117.998C1057.998,2580,1193.999,2610,1390,2562.998c35-8.999,97.998-28.999,139.004-45.996
			c65.996-26.001,78.994-29.004,110-19.004c20,6.001,72.998,22.002,118.994,36.001c275,85,476.006,38.999,650-148.999
			c61.006-66.001,71.006-72.998,117.002-80c122.002-17.002,217.002-78.999,269.004-175c37.998-70,55-137.002,62.998-250
			c5-82.998,8.994-100,32.998-130C3000,1608.999,2965,1486.001,2780.996,1365z"/>
	</g>
	<path fill="#FFFFFF" d="M638.999,640C691.001,625,730,582.998,730,542.998c0-95-170-137.998-250-62.998
		C391.001,562.998,506.001,679.004,638.999,640z"/>
	<path fill="#FFFFFF" d="M410,320.996c32.998-23.994,36.001-53.994,8.999-80c-46.001-42.998-126.001-36.992-161.997,11.006
		C241.001,272.998,240,280.996,250,300C276.001,349.004,357.998,360,410,320.996z"/>
</g>
</svg>
